<svg width="22" height="22" viewBox="0 0 22 22" fill="none" xmlns="http://www.w3.org/2000/svg">
<path fill-rule="evenodd" clip-rule="evenodd" d="M19.6705 2.3295C19.2312 1.89017 18.5189 1.89017 18.0795 2.3295L16.9224 3.48667L18.5133 5.07766L19.6705 3.9205C20.1099 3.48116 20.1099 2.76884 19.6705 2.3295ZM17.4527 6.13832L15.8617 4.54733L3.71087 16.6982C3.27031 17.1387 2.94646 17.6821 2.76859 18.2792L2.3646 19.6354L3.72079 19.2314C4.31792 19.0536 4.86131 18.7297 5.30187 18.2891L17.4527 6.13832ZM17.0189 1.26884C18.044 0.243718 19.706 0.243718 20.7312 1.26884C21.7563 2.29397 21.7563 3.95603 20.7312 4.98116L6.36253 19.3498C5.74574 19.9666 4.98499 20.42 4.14902 20.669L1.46413 21.4688C1.20021 21.5474 0.914418 21.4751 0.719689 21.2803C0.524959 21.0856 0.452612 20.7998 0.531232 20.5359L1.33101 17.851C1.58003 17.015 2.03342 16.2543 2.65021 15.6375L17.0189 1.26884Z" fill="#0F172A"/>
</svg>
