<svg width="22" height="20" viewBox="0 0 22 20" fill="none" xmlns="http://www.w3.org/2000/svg">
<path fill-rule="evenodd" clip-rule="evenodd" d="M1.46967 0.46967C1.76256 0.176777 2.23744 0.176777 2.53033 0.46967L5.33758 3.27692C7.00116 2.30617 8.93655 1.75 11 1.75C16.0968 1.75 20.4002 5.13879 21.7835 9.78448C21.8251 9.92407 21.8251 10.0727 21.7836 10.2124C21.1093 12.4791 19.741 14.4451 17.9259 15.8652L20.5303 18.4697C20.8232 18.7626 20.8232 19.2374 20.5303 19.5303C20.2374 19.8232 19.7626 19.8232 19.4697 19.5303L1.46967 1.53033C1.17678 1.23744 1.17678 0.762563 1.46967 0.46967ZM16.8561 14.7955C18.4449 13.5998 19.6559 11.9302 20.2795 9.99863C19.0137 6.08178 15.3366 3.25 11 3.25C9.35171 3.25 7.80043 3.65845 6.44021 4.37955L8.93204 6.87138C9.52474 6.479 10.236 6.25 11 6.25C13.0711 6.25 14.75 7.92893 14.75 10C14.75 10.764 14.521 11.4753 14.1286 12.068L16.8561 14.7955ZM13.0309 10.9702C13.1715 10.6765 13.25 10.3476 13.25 10C13.25 8.75736 12.2426 7.75 11 7.75C10.6524 7.75 10.3235 7.82853 10.0298 7.96914L13.0309 10.9702ZM3.46431 5.64996C3.78055 5.91748 3.82005 6.39071 3.55254 6.70695C2.74208 7.66504 2.11361 8.78091 1.71958 10.0014C2.9854 13.9182 6.66249 16.75 10.9991 16.75C11.922 16.75 12.8137 16.622 13.6582 16.3832C14.0567 16.2705 14.4712 16.5022 14.584 16.9008C14.6967 17.2994 14.4649 17.7139 14.0663 17.8266C13.0904 18.1026 12.0614 18.25 10.9991 18.25C5.90229 18.25 1.59892 14.8612 0.215548 10.2155C0.173981 10.0759 0.173959 9.92726 0.215485 9.78765C0.663702 8.2808 1.4187 6.9069 2.40732 5.73819C2.67484 5.42195 3.14807 5.38245 3.46431 5.64996Z" fill="#0F172A"/>
</svg>
