<svg width="71" height="50" viewBox="0 0 71 50" fill="none" xmlns="http://www.w3.org/2000/svg">
<path fill-rule="evenodd" clip-rule="evenodd" d="M0.5 6.25C0.5 2.79822 3.29822 0 6.75 0H64.25C67.7018 0 70.5 2.79822 70.5 6.25V16.3378C70.5 17.2302 70.0243 18.055 69.2518 18.5018C67.0035 19.8024 65.5 22.2271 65.5 25C65.5 27.7729 67.0035 30.1976 69.2518 31.4982C70.0243 31.945 70.5 32.7698 70.5 33.6622V43.75C70.5 47.2018 67.7018 50 64.25 50H6.75C3.29822 50 0.5 47.2018 0.5 43.75V33.6622C0.5 32.7698 0.975705 31.945 1.74818 31.4982C3.99646 30.1976 5.5 27.7729 5.5 25C5.5 22.2271 3.99646 19.8024 1.74818 18.5018C0.975705 18.055 0.5 17.2302 0.5 16.3378V6.25ZM6.75 5C6.05964 5 5.5 5.55964 5.5 6.25V14.9994C8.53245 17.2772 10.5 20.9077 10.5 25C10.5 29.0923 8.53245 32.7228 5.5 35.0006V43.75C5.5 44.4404 6.05964 45 6.75 45H48V42.5C48 41.1193 49.1193 40 50.5 40C51.8807 40 53 41.1193 53 42.5V45H64.25C64.9404 45 65.5 44.4404 65.5 43.75V35.0006C62.4675 32.7228 60.5 29.0923 60.5 25C60.5 20.9077 62.4675 17.2772 65.5 14.9994V6.25C65.5 5.55964 64.9404 5 64.25 5H53V7.5C53 8.88071 51.8807 10 50.5 10C49.1193 10 48 8.88071 48 7.5V5H6.75ZM50.5 15C51.8807 15 53 16.1193 53 17.5V20C53 21.3807 51.8807 22.5 50.5 22.5C49.1193 22.5 48 21.3807 48 20V17.5C48 16.1193 49.1193 15 50.5 15ZM18 27.5C18 26.1193 19.1193 25 20.5 25H38C39.3807 25 40.5 26.1193 40.5 27.5C40.5 28.8807 39.3807 30 38 30H20.5C19.1193 30 18 28.8807 18 27.5ZM50.5 27.5C51.8807 27.5 53 28.6193 53 30V32.5C53 33.8807 51.8807 35 50.5 35C49.1193 35 48 33.8807 48 32.5V30C48 28.6193 49.1193 27.5 50.5 27.5ZM18 35C18 33.6193 19.1193 32.5 20.5 32.5H30.5C31.8807 32.5 33 33.6193 33 35C33 36.3807 31.8807 37.5 30.5 37.5H20.5C19.1193 37.5 18 36.3807 18 35Z" fill="#D7D7D7"/>
</svg>
